<?xml version="1.0" standalone="no"?>
<!DOCTYPE svg PUBLIC "-//W3C//DTD SVG 20010904//EN"
 "http://www.w3.org/TR/2001/REC-SVG-20010904/DTD/svg10.dtd">
<svg version="1.0" xmlns="http://www.w3.org/2000/svg"
 width="905.000000pt" height="905.000000pt" viewBox="0 0 905.000000 905.000000"
 preserveAspectRatio="xMidYMid meet">
<metadata>
Created by potrace 1.11, written by Peter Selinger 2001-2013
</metadata>
<g transform="translate(0.000000,905.000000) scale(0.100000,-0.100000)"
fill="#000000" stroke="none">
<path d="M4215 9040 c-76 -8 -253 -36 -325 -51 -25 -6 -63 -14 -85 -18 -41 -8
-132 -35 -173 -52 -13 -5 -34 -9 -47 -9 -14 0 -25 -4 -25 -8 0 -4 -21 -14 -47
-21 -80 -22 -113 -35 -113 -43 0 -4 -5 -8 -12 -8 -20 0 -208 -83 -208 -92 0
-4 -8 -8 -18 -8 -10 0 -44 -15 -76 -32 -59 -34 -66 -38 -126 -76 -19 -12 -42
-22 -50 -22 -9 0 -29 -13 -46 -28 -17 -16 -48 -36 -68 -46 -20 -9 -36 -21 -36
-26 0 -6 -5 -10 -12 -10 -6 0 -26 -11 -44 -25 -18 -14 -37 -25 -43 -25 -5 0
-14 -6 -18 -13 -4 -6 -26 -25 -48 -41 -22 -16 -56 -43 -76 -60 -69 -60 -89
-76 -95 -76 -19 0 -464 -448 -464 -468 0 -3 -8 -12 -18 -21 -28 -26 -102 -127
-102 -139 0 -7 -4 -12 -9 -12 -11 0 -111 -135 -111 -149 0 -5 -4 -11 -8 -13
-5 -1 -33 -39 -62 -83 -29 -44 -61 -92 -72 -107 -10 -15 -18 -31 -18 -37 0 -5
-4 -11 -8 -13 -5 -1 -24 -32 -43 -68 -18 -36 -36 -67 -40 -70 -13 -11 -174
-341 -206 -425 -19 -49 -45 -110 -58 -135 -13 -25 -29 -65 -36 -90 -7 -25 -16
-49 -20 -55 -4 -5 -21 -57 -39 -115 -17 -58 -35 -113 -41 -122 -5 -10 -9 -25
-9 -33 0 -8 -4 -23 -9 -33 -9 -15 -28 -89 -51 -192 -5 -19 -18 -73 -30 -120
-11 -46 -29 -136 -40 -200 -11 -63 -26 -153 -34 -200 -60 -342 -75 -957 -34
-1361 12 -118 22 -235 22 -261 1 -25 4 -44 8 -41 5 2 9 -8 10 -24 3 -59 5 -68
10 -83 4 -8 13 -55 22 -105 20 -116 49 -247 58 -261 4 -6 9 -29 10 -52 2 -22
7 -38 12 -35 5 4 7 -13 3 -37 -3 -24 -2 -38 2 -32 5 8 12 -3 20 -29 10 -34 10
-43 -1 -50 -10 -7 -9 -9 5 -9 9 0 17 -7 17 -15 0 -8 4 -23 9 -33 22 -43 94
-270 94 -295 0 -16 3 -24 6 -18 4 6 13 -6 20 -27 8 -20 18 -48 24 -62 6 -14 9
-31 8 -37 -1 -7 2 -13 7 -13 6 0 13 -12 17 -27 3 -16 35 -88 71 -161 35 -73
64 -134 64 -137 0 -2 14 -27 30 -55 21 -36 29 -59 25 -78 -4 -20 -3 -22 3 -8
9 20 8 22 84 -124 12 -24 28 -49 35 -55 6 -5 20 -26 30 -45 24 -46 104 -167
170 -257 29 -39 51 -78 50 -85 -2 -7 -2 -9 1 -5 6 11 52 -33 52 -50 0 -7 3
-13 8 -13 4 0 14 -11 22 -24 13 -21 71 -89 152 -179 15 -17 24 -35 21 -40 -3
-6 -2 -7 4 -4 14 9 146 -130 137 -145 -5 -7 -3 -8 5 -4 14 9 159 -126 153
-142 -4 -12 32 -34 41 -26 9 9 58 -47 51 -58 -4 -6 -2 -8 4 -4 12 7 62 -13 62
-25 0 -4 20 -22 45 -40 24 -17 42 -36 39 -40 -3 -5 3 -6 12 -2 13 5 16 2 12
-9 -4 -10 -1 -15 10 -14 9 0 16 -4 15 -10 -1 -7 5 -11 15 -10 9 0 16 -5 14
-12 -1 -8 2 -11 8 -7 5 3 22 -3 37 -13 16 -10 55 -36 87 -57 55 -35 58 -39 41
-51 -10 -8 -14 -14 -8 -14 7 0 15 5 18 10 8 13 35 13 35 1 0 -5 -9 -13 -21
-16 -11 -4 -18 -9 -16 -11 2 -3 16 0 29 7 22 10 34 6 97 -32 50 -30 68 -45 59
-51 -8 -5 -1 -6 16 -2 22 5 27 4 21 -6 -5 -8 -4 -11 2 -7 6 4 45 -11 88 -32
50 -24 73 -41 64 -45 -8 -3 -4 -3 9 0 15 4 30 0 41 -11 10 -8 22 -15 27 -14 5
1 20 -2 34 -8 111 -46 382 -133 411 -133 11 0 19 -5 19 -10 0 -6 6 -10 13 -8
24 4 91 -13 78 -21 -10 -6 -9 -10 3 -14 9 -4 15 -1 13 5 -1 7 6 14 17 16 12 3
16 0 11 -8 -5 -9 -2 -10 13 -6 11 4 51 0 90 -9 98 -23 125 -25 425 -31 183 -4
309 -2 400 6 159 15 157 15 180 25 10 4 38 8 62 9 23 0 40 5 37 10 -3 5 2 7
11 3 9 -3 35 0 57 8 22 8 47 12 55 9 8 -4 15 -2 15 4 0 5 17 13 38 17 54 9
181 50 302 97 58 22 113 40 122 40 9 -1 22 6 28 14 7 7 16 11 21 8 5 -3 9 0 9
5 0 6 5 11 11 11 6 0 48 18 92 39 45 22 95 42 110 46 15 3 25 10 22 15 -3 5 6
12 20 16 14 3 25 11 25 16 0 6 7 7 16 4 15 -6 120 41 111 50 -2 3 -21 -5 -41
-17 -57 -33 -53 -16 5 19 27 18 52 32 55 32 3 0 10 4 17 10 40 34 121 79 130
73 5 -3 7 -2 4 4 -3 5 7 20 23 31 32 24 45 28 34 10 -4 -7 -3 -8 5 -4 6 4 9
11 6 16 -8 13 18 26 48 25 24 -1 26 1 13 10 -12 9 -13 14 -4 23 16 16 31 15
22 -1 -4 -6 2 -3 14 7 12 11 22 25 22 32 0 9 10 12 28 10 16 -2 29 2 29 8 1
26 10 41 49 78 24 21 48 36 56 33 8 -3 26 8 43 27 17 18 21 25 9 15 -45 -37
-36 -14 13 33 51 49 78 66 52 32 -11 -14 -10 -13 9 2 23 20 30 32 12 21 -21
-13 -9 8 24 41 34 34 54 45 40 22 -17 -26 57 35 77 65 18 27 15 25 -20 -11
-24 -24 -45 -41 -48 -38 -3 3 21 33 53 66 32 34 62 68 67 76 5 8 13 12 18 8 6
-3 20 4 32 17 17 18 18 21 4 16 -22 -8 -22 0 3 27 11 11 63 77 115 146 52 69
103 137 115 152 11 14 20 31 20 36 0 5 7 16 16 23 15 12 16 11 10 -9 -4 -13
-3 -22 3 -22 5 0 8 13 6 30 -2 16 0 30 5 30 5 0 11 8 15 19 4 14 13 17 38 15
17 -2 27 0 21 4 -23 15 -24 45 -3 78 11 19 26 31 31 28 6 -4 8 -2 5 3 -4 6 5
32 19 58 20 35 29 43 36 33 6 -9 7 -5 3 11 -5 17 -4 22 5 16 8 -5 11 -4 7 2
-7 11 40 113 53 113 5 0 7 8 4 18 -5 14 -3 14 10 -2 17 -21 22 -11 7 13 -6 9
0 29 20 61 16 26 29 52 29 59 0 6 4 11 10 11 5 0 7 8 4 18 -5 14 -3 14 11 -3
17 -20 17 -20 10 3 -4 15 3 44 21 87 23 53 30 62 42 52 13 -10 14 -8 8 10 -4
13 -4 28 0 35 4 7 9 23 10 36 2 13 9 32 17 41 8 9 12 22 9 30 -2 8 -1 11 4 8
5 -3 10 6 10 20 1 13 10 30 20 37 9 7 14 18 10 24 -4 6 4 37 17 69 13 32 40
111 61 176 21 64 41 117 46 117 4 0 5 12 3 28 -4 22 -2 24 7 12 9 -12 11 -10
6 10 -6 31 3 72 15 64 5 -3 6 10 3 28 -3 20 -2 28 3 21 6 -8 9 3 11 30 3 54
26 132 40 132 6 0 14 4 19 9 4 5 3 6 -4 2 -20 -11 -23 10 -8 65 9 30 20 86 25
126 6 39 17 84 25 99 8 16 11 40 8 57 -4 21 -3 28 5 23 7 -4 12 -1 12 8 0 9
-5 16 -11 16 -6 0 -8 8 -5 18 8 28 37 259 44 362 9 128 9 821 -1 940 -4 52 -7
104 -8 115 0 11 -5 38 -10 60 -4 22 -11 65 -13 95 -3 30 -10 79 -15 107 -6 29
-8 60 -5 68 4 8 2 15 -4 15 -9 0 -12 17 -28 138 -4 26 -10 52 -14 57 -4 6 -11
33 -14 60 -4 28 -16 79 -26 115 -10 36 -30 110 -45 165 -15 55 -37 126 -48
159 -16 46 -18 62 -9 77 9 15 9 17 -2 13 -9 -4 -19 10 -31 43 -9 26 -26 72
-37 101 -17 44 -19 58 -9 80 11 25 10 26 -4 8 -8 -11 -16 -17 -16 -13 -1 4 -2
10 -3 15 -1 4 -11 27 -22 52 -12 25 -29 65 -39 90 -10 25 -31 73 -47 108 -16
34 -26 67 -22 74 5 7 3 8 -6 3 -9 -6 -11 1 -6 26 4 23 3 27 -2 14 -7 -16 -18
-1 -62 85 -57 114 -140 262 -151 270 -3 3 -16 23 -27 45 -12 22 -44 74 -71
115 -28 41 -51 81 -51 88 0 6 -4 12 -8 12 -4 0 -30 32 -57 71 -28 38 -60 82
-73 97 -12 15 -20 32 -18 39 3 7 -1 10 -8 7 -6 -2 -27 16 -45 41 -18 25 -36
45 -40 45 -4 0 -12 9 -17 19 -21 45 -448 483 -474 486 -15 2 -59 39 -54 46 3
5 0 9 -6 9 -8 0 -61 36 -165 112 -5 4 -26 21 -46 38 -20 16 -39 30 -42 30 -8
0 -140 81 -158 97 -54 47 -572 283 -622 283 -8 0 -28 7 -43 15 -16 8 -37 15
-47 15 -11 0 -15 4 -11 12 4 6 3 8 -4 5 -10 -7 -91 10 -187 38 -84 24 -263 54
-398 65 -139 11 -490 11 -602 0z"/>
<path d="M6155 8610 c3 -5 11 -10 16 -10 6 0 7 5 4 10 -3 6 -11 10 -16 10 -6
0 -7 -4 -4 -10z"/>
<path d="M6260 8550 c0 -5 5 -10 10 -10 6 0 10 5 10 10 0 6 -4 10 -10 10 -5 0
-10 -4 -10 -10z"/>
<path d="M7267 7586 c10 -13 19 -23 21 -21 5 5 -22 45 -31 45 -4 0 0 -11 10
-24z"/>
<path d="M7375 7420 c3 -5 8 -10 11 -10 2 0 4 5 4 10 0 6 -5 10 -11 10 -5 0
-7 -4 -4 -10z"/>
<path d="M7590 7086 c0 -9 5 -16 10 -16 6 0 10 4 10 9 0 6 -4 13 -10 16 -5 3
-10 -1 -10 -9z"/>
<path d="M7861 6554 c0 -11 3 -14 6 -6 3 7 2 16 -1 19 -3 4 -6 -2 -5 -13z"/>
<path d="M7941 6284 c0 -11 3 -14 6 -6 3 7 2 16 -1 19 -3 4 -6 -2 -5 -13z"/>
<path d="M7999 6070 c5 -14 12 -38 16 -54 3 -15 8 -27 10 -24 7 7 -13 80 -25
92 -9 8 -9 5 -1 -14z"/>
<path d="M8091 5710 c0 -8 4 -22 9 -30 12 -18 12 -2 0 25 -6 13 -9 15 -9 5z"/>
<path d="M852 5430 c0 -14 2 -19 5 -12 2 6 2 18 0 25 -3 6 -5 1 -5 -13z"/>
<path d="M881 5434 c0 -11 3 -14 6 -6 3 7 2 16 -1 19 -3 4 -6 -2 -5 -13z"/>
<path d="M8175 5290 c-4 -17 -5 -34 -2 -36 2 -3 7 10 11 27 3 18 4 34 2 36 -2
3 -7 -10 -11 -27z"/>
<path d="M852 5155 c0 -16 2 -22 5 -12 2 9 2 23 0 30 -3 6 -5 -1 -5 -18z"/>
<path d="M8176 3854 c-4 -14 -5 -28 -3 -31 3 -2 8 8 11 23 4 14 5 28 3 31 -3
2 -8 -8 -11 -23z"/>
<path d="M8171 3633 c-1 -6 -4 -20 -7 -30 -5 -17 -5 -17 6 0 6 10 9 23 6 30
-3 9 -5 9 -5 0z"/>
<path d="M8101 3324 c0 -11 3 -14 6 -6 3 7 2 16 -1 19 -3 4 -6 -2 -5 -13z"/>
<path d="M8071 3254 c0 -11 3 -14 6 -6 3 7 2 16 -1 19 -3 4 -6 -2 -5 -13z"/>
<path d="M8007 2910 c-3 -11 -1 -20 4 -20 5 0 9 9 9 20 0 11 -2 20 -4 20 -2 0
-6 -9 -9 -20z"/>
<path d="M7951 2824 c0 -11 3 -14 6 -6 3 7 2 16 -1 19 -3 4 -6 -2 -5 -13z"/>
<path d="M1091 2784 c0 -11 3 -14 6 -6 3 7 2 16 -1 19 -3 4 -6 -2 -5 -13z"/>
<path d="M7913 2703 c-3 -10 -8 -22 -10 -28 -3 -5 3 -1 11 9 16 20 21 36 11
36 -3 0 -8 -8 -12 -17z"/>
<path d="M7941 2684 c0 -11 3 -14 6 -6 3 7 2 16 -1 19 -3 4 -6 -2 -5 -13z"/>
<path d="M1171 2564 c0 -11 3 -14 6 -6 3 7 2 16 -1 19 -3 4 -6 -2 -5 -13z"/>
<path d="M7863 2555 c-3 -9 -3 -18 -1 -21 3 -3 8 4 11 16 6 23 -1 27 -10 5z"/>
<path d="M1161 2524 c0 -11 3 -14 6 -6 3 7 2 16 -1 19 -3 4 -6 -2 -5 -13z"/>
<path d="M7847 2503 c-4 -3 -7 -11 -7 -17 0 -6 5 -5 12 2 6 6 9 14 7 17 -3 3
-9 2 -12 -2z"/>
<path d="M7830 2456 c0 -9 5 -16 10 -16 6 0 10 4 10 9 0 6 -4 13 -10 16 -5 3
-10 -1 -10 -9z"/>
<path d="M7781 2264 c0 -11 3 -14 6 -6 3 7 2 16 -1 19 -3 4 -6 -2 -5 -13z"/>
<path d="M7693 2174 c-7 -7 -13 -19 -13 -26 0 -7 7 -2 16 10 18 26 16 37 -3
16z"/>
<path d="M7655 2110 c-10 -11 -13 -20 -7 -20 6 0 13 6 15 13 4 9 8 8 16 -3 12
-17 15 -1 3 18 -7 9 -13 8 -27 -8z"/>
<path d="M7595 1979 c-4 -6 -5 -12 -2 -15 2 -3 7 2 10 11 7 17 1 20 -8 4z"/>
<path d="M7551 1824 c0 -11 3 -14 6 -6 3 7 2 16 -1 19 -3 4 -6 -2 -5 -13z"/>
<path d="M1670 1581 c0 -6 5 -13 10 -16 6 -3 10 1 10 9 0 9 -4 16 -10 16 -5 0
-10 -4 -10 -9z"/>
<path d="M7335 1570 c-3 -5 -1 -10 4 -10 6 0 11 5 11 10 0 6 -2 10 -4 10 -3 0
-8 -4 -11 -10z"/>
<path d="M7312 1543 c2 -5 -7 -19 -19 -32 -13 -14 -20 -27 -17 -30 3 -3 9 1
15 9 8 13 10 13 20 0 9 -12 10 -12 5 4 -4 10 -2 24 4 31 8 9 8 15 0 20 -6 4
-9 3 -8 -2z"/>
<path d="M7213 1408 c-17 -22 -26 -45 -10 -25 8 9 18 17 22 17 4 0 4 -8 0 -17
-5 -14 -3 -15 5 -6 8 7 9 17 3 28 -8 13 -11 14 -20 3z"/>
<path d="M1805 1399 c-11 -16 -1 -19 13 -3 7 8 8 14 3 14 -5 0 -13 -5 -16 -11z"/>
<path d="M7133 1305 c-7 -8 -13 -20 -13 -27 0 -8 5 -6 11 5 6 9 14 15 20 12 5
-3 6 1 3 9 -7 19 -6 19 -21 1z"/>
<path d="M2090 1070 c0 -5 5 -10 10 -10 6 0 10 5 10 10 0 6 -4 10 -10 10 -5 0
-10 -4 -10 -10z"/>
<path d="M2230 941 c0 -5 5 -13 10 -16 6 -3 10 -2 10 4 0 5 -4 13 -10 16 -5 3
-10 2 -10 -4z"/>
<path d="M2260 911 c0 -5 7 -11 14 -14 10 -4 13 -1 9 9 -6 15 -23 19 -23 5z"/>
<path d="M6666 825 c-11 -8 -17 -17 -14 -20 2 -3 13 4 23 15 21 23 18 25 -9 5z"/>
<path d="M6740 820 c-9 -6 -10 -10 -3 -10 6 0 15 5 18 10 8 12 4 12 -15 0z"/>
<path d="M6625 780 c-3 -5 -2 -10 4 -10 5 0 13 5 16 10 3 6 2 10 -4 10 -5 0
-13 -4 -16 -10z"/>
<path d="M2390 770 c0 -5 5 -10 10 -10 6 0 10 5 10 10 0 6 -4 10 -10 10 -5 0
-10 -4 -10 -10z"/>
<path d="M6394 591 c3 -5 16 -11 28 -14 22 -6 22 -5 4 8 -22 17 -40 20 -32 6z"/>
<path d="M6345 510 c-3 -5 -1 -10 4 -10 6 0 11 5 11 10 0 6 -2 10 -4 10 -3 0
-8 -4 -11 -10z"/>
<path d="M6040 366 c4 -4 16 -4 26 2 16 9 14 10 -8 9 -15 -1 -23 -6 -18 -11z"/>
<path d="M5995 340 c-3 -5 -2 -10 4 -10 5 0 13 5 16 10 3 6 2 10 -4 10 -5 0
-13 -4 -16 -10z"/>
<path d="M5894 295 c-18 -14 -18 -14 4 -8 12 3 22 9 22 14 0 12 -3 11 -26 -6z"/>
<path d="M3080 292 c0 -5 11 -15 25 -22 19 -10 32 -11 57 -2 l33 11 -33 -5
c-21 -4 -41 0 -57 10 -14 9 -25 13 -25 8z"/>
<path d="M3138 293 c7 -3 16 -2 19 1 4 3 -2 6 -13 5 -11 0 -14 -3 -6 -6z"/>
<path d="M5840 275 c-17 -10 -20 -14 -9 -15 9 0 22 7 29 15 15 18 12 18 -20 0z"/>
<path d="M5685 210 c-3 -5 -1 -10 4 -10 6 0 11 5 11 10 0 6 -2 10 -4 10 -3 0
-8 -4 -11 -10z"/>
<path d="M5657 189 c7 -7 15 -10 18 -7 3 3 -2 9 -12 12 -14 6 -15 5 -6 -5z"/>
<path d="M3348 183 c6 -2 18 -2 25 0 6 3 1 5 -13 5 -14 0 -19 -2 -12 -5z"/>
<path d="M5538 143 c7 -3 16 -2 19 1 4 3 -2 6 -13 5 -11 0 -14 -3 -6 -6z"/>
<path d="M3555 125 c28 -7 51 -12 53 -10 6 5 -61 25 -82 24 -12 0 2 -6 29 -14z"/>
<path d="M5428 113 c7 -3 16 -2 19 1 4 3 -2 6 -13 5 -11 0 -14 -3 -6 -6z"/>
<path d="M3828 53 c7 -3 16 -2 19 1 4 3 -2 6 -13 5 -11 0 -14 -3 -6 -6z"/>
<path d="M5198 53 c7 -3 16 -2 19 1 4 3 -2 6 -13 5 -11 0 -14 -3 -6 -6z"/>
<path d="M5136 36 l-29 -13 28 -7 c15 -4 30 -5 33 -1 3 3 -3 5 -14 5 -16 1
-15 3 6 15 31 18 15 18 -24 1z"/>
<path d="M3798 33 c7 -3 16 -2 19 1 4 3 -2 6 -13 5 -11 0 -14 -3 -6 -6z"/>
<path d="M3948 33 c6 -2 10 -8 7 -13 -3 -4 5 -6 17 -2 21 5 21 6 2 13 -10 4
-23 8 -29 8 -5 -1 -4 -3 3 -6z"/>
<path d="M5062 26 c-24 -13 -24 -13 7 -13 18 0 27 4 20 7 -8 6 -7 9 2 13 8 3
10 6 4 6 -5 0 -21 -6 -33 -13z"/>
<path d="M5228 33 c7 -3 16 -2 19 1 4 3 -2 6 -13 5 -11 0 -14 -3 -6 -6z"/>
<path d="M3908 23 c7 -3 16 -2 19 1 4 3 -2 6 -13 5 -11 0 -14 -3 -6 -6z"/>
</g>
</svg>
